<svg width="1920" height="30" viewBox="0 0 1920 30" fill="none" xmlns="http://www.w3.org/2000/svg">
<path d="M830.269 29.8605H1660.54V1.52588e-05H830.269V29.8605Z" fill="#FAC23E"/>
<path d="M1638.69 1.52588e-05H1660.54L1623.15 29.8605H1601.31L1638.69 1.52588e-05Z" fill="#23102A"/>
<path d="M1590.51 1.52588e-05H1612.35L1574.97 29.8605H1553.13L1590.51 1.52588e-05Z" fill="#23102A"/>
<path d="M1542.33 1.52588e-05H1564.17L1526.79 29.8605H1504.94L1542.33 1.52588e-05Z" fill="#23102A"/>
<path d="M1494.15 1.52588e-05H1515.99L1478.6 29.8605H1456.76L1494.15 1.52588e-05Z" fill="#23102A"/>
<path d="M1445.96 1.52588e-05H1467.8L1430.42 29.8605H1408.58L1445.96 1.52588e-05Z" fill="#23102A"/>
<path d="M1397.78 1.52588e-05H1419.62L1382.24 29.8605H1360.4L1397.78 1.52588e-05Z" fill="#23102A"/>
<path d="M1349.6 1.52588e-05H1371.44L1334.05 29.8605H1312.21L1349.6 1.52588e-05Z" fill="#23102A"/>
<path d="M1301.41 1.52588e-05H1323.26L1285.87 29.8605H1264.03L1301.41 1.52588e-05Z" fill="#23102A"/>
<path d="M1253.23 1.52588e-05H1275.08L1237.69 29.8605H1215.85L1253.23 1.52588e-05Z" fill="#23102A"/>
<path d="M1205.05 1.52588e-05H1226.89L1189.51 29.8605H1167.66L1205.05 1.52588e-05Z" fill="#23102A"/>
<path d="M1156.86 1.52588e-05H1178.71L1141.32 29.8605H1119.48L1156.86 1.52588e-05Z" fill="#23102A"/>
<path d="M1108.68 1.52588e-05H1130.53L1093.14 29.8605H1071.3L1108.68 1.52588e-05Z" fill="#23102A"/>
<path d="M1060.5 1.52588e-05H1082.34L1044.96 29.8605H1023.11L1060.5 1.52588e-05Z" fill="#23102A"/>
<path d="M1012.32 1.52588e-05H1034.16L996.775 29.8605H974.933L1012.32 1.52588e-05Z" fill="#23102A"/>
<path d="M964.134 1.52588e-05H985.977L948.592 29.8605H926.749L964.134 1.52588e-05Z" fill="#23102A"/>
<path d="M915.952 1.52588e-05H937.795L900.41 29.8605H878.567L915.952 1.52588e-05Z" fill="#23102A"/>
<path d="M867.769 1.52588e-05H889.611L852.226 29.8605H830.384L867.769 1.52588e-05Z" fill="#23102A"/>
<path d="M1660.54 29.8605H2490.8V1.52588e-05H1660.54V29.8605Z" fill="#FAC23E"/>
<path d="M1938.95 1.52588e-05H1960.79L1923.41 29.8605H1901.57L1938.95 1.52588e-05Z" fill="#23102A"/>
<path d="M1890.77 1.52588e-05H1912.61L1875.23 29.8605H1853.38L1890.77 1.52588e-05Z" fill="#23102A"/>
<path d="M1842.59 1.52588e-05H1864.43L1827.04 29.8605H1805.2L1842.59 1.52588e-05Z" fill="#23102A"/>
<path d="M1794.4 1.52588e-05H1816.24L1778.86 29.8605H1757.02L1794.4 1.52588e-05Z" fill="#23102A"/>
<path d="M1746.22 1.52588e-05H1768.06L1730.68 29.8605H1708.83L1746.22 1.52588e-05Z" fill="#23102A"/>
<path d="M1698.04 1.52588e-05H1719.88L1682.49 29.8605H1660.65L1698.04 1.52588e-05Z" fill="#23102A"/>
<path d="M830.268 0H0V29.8605H830.268V0Z" fill="#FAC23E"/>
<path d="M21.8425 29.8605H0L37.385 0H59.2275L21.8425 29.8605Z" fill="#23102A"/>
<path d="M70.0261 29.8605H48.1836L85.5686 0H107.411L70.0261 29.8605Z" fill="#23102A"/>
<path d="M118.21 29.8605H96.3672L133.752 0H155.595L118.21 29.8605Z" fill="#23102A"/>
<path d="M166.393 29.8605H144.551L181.936 0H203.778L166.393 29.8605Z" fill="#23102A"/>
<path d="M214.573 29.8605H192.73L230.116 0H251.958L214.573 29.8605Z" fill="#23102A"/>
<path d="M262.757 29.8605H240.914L278.299 0H300.142L262.757 29.8605Z" fill="#23102A"/>
<path d="M310.94 29.8605H289.098L326.483 0H348.325L310.94 29.8605Z" fill="#23102A"/>
<path d="M359.124 29.8605H337.281L374.664 0H396.509L359.124 29.8605Z" fill="#23102A"/>
<path d="M407.306 29.8605H385.461L422.848 0H444.691L407.306 29.8605Z" fill="#23102A"/>
<path d="M455.489 29.8605H433.648L471.031 0H492.876L455.489 29.8605Z" fill="#23102A"/>
<path d="M503.673 29.8605H481.828L519.213 0H541.056L503.673 29.8605Z" fill="#23102A"/>
<path d="M551.856 29.8605H530.012L567.397 0H589.239L551.856 29.8605Z" fill="#23102A"/>
<path d="M600.038 29.8605H578.195L615.58 0H637.425L600.038 29.8605Z" fill="#23102A"/>
<path d="M648.218 29.8605H626.375L663.76 0H685.603L648.218 29.8605Z" fill="#23102A"/>
<path d="M696.403 29.8605H674.561L711.946 0H733.788L696.403 29.8605Z" fill="#23102A"/>
<path d="M744.585 29.8605H722.742L760.127 0H781.97L744.585 29.8605Z" fill="#23102A"/>
<path d="M792.768 29.8605H770.926L808.311 0H830.153L792.768 29.8605Z" fill="#23102A"/>
</svg>
